<svg xmlns="http://www.w3.org/2000/svg" viewBox="0 0 1600 900">
<defs><linearGradient id="g" x1="0" x2="1"><stop stop-color="#041522"/><stop offset="1" stop-color="#07112d"/></linearGradient></defs><rect width="1600" height="900" fill="url(#g)"/>
<g stroke="#35f1ff" stroke-opacity=".12" fill="none"><path d="M0 120H1600M0 240H1600M0 360H1600M0 480H1600M0 600H1600M0 720H1600"/><path d="M100 0V900M300 0V900M500 0V900M700 0V900M900 0V900M1100 0V900M1300 0V900M1500 0V900"/></g>
<g fill="#38e7ff" fill-opacity=".15" font-family="monospace" font-size="50"><text x="80" y="190">&lt;/&gt;</text><text x="1180" y="180">10110101</text><text x="180" y="720">for(i=0;i&lt;n;i++)</text><text x="1050" y="690">{ algorithm(); }</text></g><circle cx="820" cy="430" r="240" fill="none" stroke="#7a64ff" stroke-opacity=".13" stroke-width="5"/><circle cx="820" cy="430" r="170" fill="none" stroke="#38e7ff" stroke-opacity=".11" stroke-width="3"/>
</svg>
